<?xml version="1.0" encoding="utf-8"?><svg width="96" height="24" viewBox="0 0 96 24" xmlns="http://www.w3.org/2000/svg" xmlns:xlink="http://www.w3.org/1999/xlink"><svg width="24" height="24" viewBox="0 2 24 24" id="check-circle" xmlns="http://www.w3.org/2000/svg"><path fill="#79f0c0" d="M20.062 11.469c0-.266-.094-.531-.281-.719l-1.422-1.406c-.187-.187-.438-.297-.703-.297s-.516.109-.703.297l-6.375 6.359-3.531-3.531c-.187-.187-.438-.297-.703-.297s-.516.109-.703.297l-1.422 1.406c-.187.187-.281.453-.281.719s.094.516.281.703l5.656 5.656c.187.187.453.297.703.297.266 0 .531-.109.719-.297l8.484-8.484a.981.981 0 0 0 .281-.703zM24 14c0 6.625-5.375 12-12 12S0 20.625 0 14 5.375 2 12 2s12 5.375 12 12z"/></svg><svg width="24" height="24" viewBox="0 2 24 24" id="info-circle" x="24" xmlns="http://www.w3.org/2000/svg"><path fill="#a9a9a9" d="M16 21.5V19c0-.281-.219-.5-.5-.5H14v-8c0-.281-.219-.5-.5-.5h-5c-.281 0-.5.219-.5.5V13c0 .281.219.5.5.5H10v5H8.5c-.281 0-.5.219-.5.5v2.5c0 .281.219.5.5.5h7c.281 0 .5-.219.5-.5zm-2-14V5c0-.281-.219-.5-.5-.5h-3c-.281 0-.5.219-.5.5v2.5c0 .281.219.5.5.5h3c.281 0 .5-.219.5-.5zM24 14c0 6.625-5.375 12-12 12S0 20.625 0 14 5.375 2 12 2s12 5.375 12 12z"/></svg><svg width="24" height="24" viewBox="0 2 24 24" id="question-circle" x="48" xmlns="http://www.w3.org/2000/svg"><path fill="gold" d="M14 21.5v-3c0-.281-.219-.5-.5-.5h-3c-.281 0-.5.219-.5.5v3c0 .281.219.5.5.5h3c.281 0 .5-.219.5-.5zM18 11c0-2.859-3-5-5.688-5-2.547 0-4.453 1.094-5.797 3.328a.49.49 0 0 0 .125.656l2.063 1.563a.477.477 0 0 0 .297.094.498.498 0 0 0 .391-.187c.734-.938 1.047-1.219 1.344-1.437.266-.187.781-.375 1.344-.375 1 0 1.922.641 1.922 1.328 0 .812-.422 1.219-1.375 1.656-1.109.5-2.625 1.797-2.625 3.313v.562c0 .281.219.5.5.5h3c.281 0 .5-.219.5-.5 0-.359.453-1.125 1.188-1.547 1.188-.672 2.812-1.578 2.812-3.953zm6 3c0 6.625-5.375 12-12 12S0 20.625 0 14 5.375 2 12 2s12 5.375 12 12z"/></svg><svg width="24" height="24" viewBox="0 2 24 24" id="x-circle" x="72" xmlns="http://www.w3.org/2000/svg"><path fill="maroon" d="M17.953 17.531a.99.99 0 0 0-.297-.703L14.828 14l2.828-2.828a.996.996 0 0 0 0-1.422L16.25 8.344c-.187-.187-.453-.297-.719-.297s-.516.109-.703.297L12 11.172 9.172 8.344a.996.996 0 0 0-1.422 0L6.344 9.75c-.187.187-.297.453-.297.719s.109.516.297.703L9.172 14l-2.828 2.828a.996.996 0 0 0 0 1.422l1.406 1.406c.187.187.453.297.719.297s.516-.109.703-.297L12 16.828l2.828 2.828a.996.996 0 0 0 1.422 0l1.406-1.406c.187-.187.297-.453.297-.719zM24 14c0 6.625-5.375 12-12 12S0 20.625 0 14 5.375 2 12 2s12 5.375 12 12z"/></svg></svg>